<?xml version="1.0" encoding="utf-8"?>
<svg version="1.1" xmlns:xlink="http://www.w3.org/1999/xlink" width="39px" height="36px" xmlns="http://www.w3.org/2000/svg">
  <g transform="matrix(1 0 0 1 -12 0 )">
    <path d="M 0 7.71428571428572  L 19.5 0  L 39 7.71428571428572  L 39 10.2857142857143  L 36.4 10.2857142857143  C 36.4 10.6339285714286  36.2611979166667 10.9352678571429  35.98359375 11.1897321428571  C 35.7059895833333 11.4441964285714  35.3776041666667 11.5714285714286  34.9984375 12  L 4.0015625 12  C 3.62239583333333 11.5714285714286  3.29401041666667 11.4441964285714  3.01640625 11.1897321428571  C 2.73880208333333 10.9352678571429  2.6 10.6339285714286  2.6 10.2857142857143  L 0 10.2857142857143  L 0 7.71428571428572  Z M 5.2 28.2857142857143  L 5.2 12.8571428571429  L 11 12.8571428571429  L 11 28.2857142857143  L 13 28.2857142857143  L 13 12.8571428571429  L 18.2 12.8571428571429  L 18.2 28.2857142857143  L 20.8 28.2857142857143  L 20.8 12.8571428571429  L 26 12.8571428571429  L 26 28.2857142857143  L 28 28.2857142857143  L 28 12.8571428571429  L 33.8 12.8571428571429  L 33.8 28.2857142857143  L 34.9984375 28.2857142857143  C 35.3776041666667 28.2857142857143  35.7059895833333 28.4129464285714  35.98359375 28.6674107142857  C 36.2611979166667 28.921875  36.4 29.2232142857143  36.4 29.5714285714286  L 36.4 30.8571428571429  L 2.6 30.8571428571429  L 2.6 29.5714285714286  C 2.6 29.2232142857143  2.73880208333333 28.921875  3.01640625 28.6674107142857  C 3.29401041666667 28.4129464285714  3.62239583333333 28.2857142857143  4.0015625 28.2857142857143  L 5.2 28.2857142857143  Z M 1.4015625 32  L 37.5984375 32  C 37.9776041666667 32.1428571428571  38.3059895833333 32.2700892857143  38.58359375 32.5245535714286  C 38.8611979166667 32.7790178571429  39 33.0803571428571  39 33.4285714285714  L 39 36  L 0 36  L 0 33.4285714285714  C 0 33.0803571428571  0.138802083333333 32.7790178571429  0.41640625 32.5245535714286  C 0.694010416666667 32.2700892857143  1.02239583333333 32.1428571428571  1.4015625 32  Z " fill-rule="nonzero" fill="#1abc9c" stroke="none" fill-opacity="0.8" transform="matrix(1 0 0 1 12 0 )" />
  </g>
</svg>