<?xml version="1.0" encoding="utf-8"?>
<svg version="1.1" xmlns:xlink="http://www.w3.org/1999/xlink" width="16px" height="16px" xmlns="http://www.w3.org/2000/svg">
  <g transform="matrix(1 0 0 1 -46 0 )">
    <path d="M 4.30769230769231 12  C 4.30769230769231 12.0833333333333  4.27884615384615 12.1570512820513  4.22115384615385 12.2211538461538  L 1.75961538461538 14.6826923076923  C 1.69551282051282 14.7403846153846  1.62179487179487 14.7692307692308  1.53846153846154 14.7692307692308  C 1.46153846153846 14.7692307692308  1.38782051282051 14.7403846153846  1.31730769230769 14.6826923076923  C 1.25961538461538 14.6185897435897  1.23076923076923 14.5448717948718  1.23076923076923 14.4615384615385  C 1.23076923076923 14.3782051282051  1.25961538461538 14.3044871794872  1.31730769230769 14.2403846153846  L 3.77884615384615 11.7788461538462  C 3.84294871794872 11.7211538461538  3.91666666666667 11.6923076923077  4 11.6923076923077  C 4.08333333333333 11.6923076923077  4.15705128205128 11.7211538461538  4.22115384615385 11.7788461538462  C 4.27884615384615 11.8429487179487  4.30769230769231 11.9166666666667  4.30769230769231 12  Z M 5.75961538461539 12.3942307692308  C 5.81730769230769 12.4519230769231  5.84615384615385 12.525641025641  5.84615384615385 12.6153846153846  L 5.84615384615385 15.6923076923077  C 5.84615384615385 15.7820512820513  5.81730769230769 15.8557692307692  5.75961538461539 15.9134615384615  C 5.70192307692308 15.9711538461538  5.62820512820513 16  5.53846153846154 16  C 5.44871794871795 16  5.375 15.9711538461538  5.31730769230769 15.9134615384615  C 5.25961538461539 15.8557692307692  5.23076923076923 15.7820512820513  5.23076923076923 15.6923076923077  L 5.23076923076923 12.6153846153846  C 5.23076923076923 12.525641025641  5.25961538461539 12.4519230769231  5.31730769230769 12.3942307692308  C 5.375 12.3365384615385  5.44871794871795 12.3076923076923  5.53846153846154 12.3076923076923  C 5.62820512820513 12.3076923076923  5.70192307692308 12.3365384615385  5.75961538461539 12.3942307692308  Z M 3.60576923076923 10.2403846153846  C 3.66346153846154 10.2980769230769  3.69230769230769 10.3717948717949  3.69230769230769 10.4615384615385  C 3.69230769230769 10.5512820512821  3.66346153846154 10.625  3.60576923076923 10.6826923076923  C 3.54807692307692 10.7403846153846  3.47435897435897 10.7692307692308  3.38461538461538 10.7692307692308  L 0.307692307692308 10.7692307692308  C 0.217948717948718 10.7692307692308  0.144230769230769 10.7403846153846  0.0865384615384615 10.6826923076923  C 0.0288461538461538 10.625  0 10.5512820512821  0 10.4615384615385  C 0 10.3717948717949  0.0288461538461538 10.2980769230769  0.0865384615384615 10.2403846153846  C 0.144230769230769 10.1826923076923  0.217948717948718 10.1538461538462  0.307692307692308 10.1538461538462  L 3.38461538461538 10.1538461538462  C 3.47435897435897 10.1538461538462  3.54807692307692 10.1826923076923  3.60576923076923 10.2403846153846  Z M 15.0384615384615 9.73076923076923  C 15.5769230769231 10.2820512820513  15.8461538461538 10.9358974358974  15.8461538461538 11.6923076923077  C 15.8461538461538 12.4615384615385  15.5737179487179 13.1121794871795  15.0288461538462 13.6442307692308  L 13.6153846153846 15.0480769230769  C 13.0833333333333 15.5801282051282  12.4326923076923 15.8461538461538  11.6634615384615 15.8461538461538  C 10.8878205128205 15.8461538461538  10.2339743589744 15.5737179487179  9.70192307692308 15.0288461538462  L 6.49038461538462 11.8076923076923  C 6.35576923076923 11.6730769230769  6.22115384615385 11.4935897435897  6.08653846153846 11.2692307692308  L 8.38461538461539 11.0961538461538  L 11.0096153846154 13.7307692307692  C 11.1826923076923 13.9038461538462  11.400641025641 13.9919871794872  11.6634615384615 13.9951923076923  C 11.9262820512821 13.9983974358974  12.1442307692308 13.9134615384615  12.3173076923077 13.7403846153846  L 13.7307692307692 12.3365384615385  C 13.9102564102564 12.1570512820513  14 11.9423076923077  14 11.6923076923077  C 14 11.4358974358974  13.9102564102564 11.2179487179487  13.7307692307692 11.0384615384615  L 11.0961538461538 8.39423076923077  L 11.2692307692308 6.09615384615385  C 11.4935897435897 6.23076923076923  11.6730769230769 6.36538461538462  11.8076923076923 6.5  L 15.0384615384615 9.73076923076923  Z M 9.50961538461539 4.19230769230769  C 9.64423076923077 4.32692307692308  9.77884615384615 4.50641025641026  9.91346153846154 4.73076923076923  L 7.61538461538462 4.90384615384615  L 4.99038461538462 2.26923076923077  C 4.81089743589744 2.08974358974359  4.59294871794872 2  4.33653846153846 2  C 4.08653846153846 2  3.86858974358974 2.08653846153846  3.68269230769231 2.25961538461539  L 2.26923076923077 3.66346153846154  C 2.08974358974359 3.84294871794872  2 4.05769230769231  2 4.30769230769231  C 2 4.56410256410256  2.08974358974359 4.78205128205128  2.26923076923077 4.96153846153846  L 4.90384615384615 7.59615384615385  L 4.73076923076923 9.90384615384615  C 4.50641025641026 9.76923076923077  4.32692307692308 9.63461538461539  4.19230769230769 9.5  L 0.961538461538462 6.26923076923077  C 0.423076923076923 5.71794871794872  0.153846153846154 5.06410256410256  0.153846153846154 4.30769230769231  C 0.153846153846154 3.53846153846154  0.426282051282051 2.88782051282051  0.971153846153846 2.35576923076923  L 2.38461538461538 0.951923076923077  C 2.91666666666667 0.419871794871794  3.56730769230769 0.153846153846153  4.33653846153846 0.153846153846153  C 5.11217948717949 0.153846153846153  5.76602564102564 0.426282051282051  6.29807692307692 0.971153846153847  L 9.50961538461539 4.19230769230769  Z M 15.9134615384615 5.31730769230769  C 15.9711538461538 5.375  16 5.44871794871795  16 5.53846153846154  C 16 5.62820512820513  15.9711538461538 5.70192307692308  15.9134615384615 5.75961538461539  C 15.8557692307692 5.81730769230769  15.7820512820513 5.84615384615385  15.6923076923077 5.84615384615385  L 12.6153846153846 5.84615384615385  C 12.525641025641 5.84615384615385  12.4519230769231 5.81730769230769  12.3942307692308 5.75961538461539  C 12.3365384615385 5.70192307692308  12.3076923076923 5.62820512820513  12.3076923076923 5.53846153846154  C 12.3076923076923 5.44871794871795  12.3365384615385 5.375  12.3942307692308 5.31730769230769  C 12.4519230769231 5.25961538461539  12.525641025641 5.23076923076923  12.6153846153846 5.23076923076923  L 15.6923076923077 5.23076923076923  C 15.7820512820513 5.23076923076923  15.8557692307692 5.25961538461539  15.9134615384615 5.31730769230769  Z M 10.6826923076923 0.0865384615384617  C 10.7403846153846 0.14423076923077  10.7692307692308 0.217948717948717  10.7692307692308 0.307692307692308  L 10.7692307692308 3.38461538461539  C 10.7692307692308 3.47435897435897  10.7403846153846 3.54807692307692  10.6826923076923 3.60576923076923  C 10.625 3.66346153846154  10.5512820512821 3.69230769230769  10.4615384615385 3.69230769230769  C 10.3717948717949 3.69230769230769  10.2980769230769 3.66346153846154  10.2403846153846 3.60576923076923  C 10.1826923076923 3.54807692307692  10.1538461538462 3.47435897435897  10.1538461538462 3.38461538461539  L 10.1538461538462 0.307692307692308  C 10.1538461538462 0.217948717948717  10.1826923076923 0.14423076923077  10.2403846153846 0.0865384615384617  C 10.2980769230769 0.0288461538461533  10.3717948717949 0  10.4615384615385 0  C 10.5512820512821 0  10.625 0.0288461538461533  10.6826923076923 0.0865384615384617  Z M 14.7692307692308 1.53846153846154  C 14.7692307692308 1.62179487179487  14.7403846153846 1.69551282051282  14.6826923076923 1.75961538461539  L 12.2211538461538 4.22115384615385  C 12.150641025641 4.27884615384615  12.0769230769231 4.30769230769231  12 4.30769230769231  C 11.9230769230769 4.30769230769231  11.849358974359 4.27884615384615  11.7788461538462 4.22115384615385  C 11.7211538461538 4.15705128205128  11.6923076923077 4.08333333333333  11.6923076923077 4  C 11.6923076923077 3.91666666666667  11.7211538461538 3.84294871794872  11.7788461538462 3.77884615384615  L 14.2403846153846 1.31730769230769  C 14.3044871794872 1.25961538461539  14.3782051282051 1.23076923076923  14.4615384615385 1.23076923076923  C 14.5448717948718 1.23076923076923  14.6185897435897 1.25961538461539  14.6826923076923 1.31730769230769  C 14.7403846153846 1.38141025641026  14.7692307692308 1.4551282051282  14.7692307692308 1.53846153846154  Z " fill-rule="nonzero" fill="#797979" stroke="none" transform="matrix(1 0 0 1 46 0 )" />
  </g>
</svg>