<?xml version="1.0" encoding="utf-8"?>
<svg version="1.1" xmlns:xlink="http://www.w3.org/1999/xlink" width="42px" height="34px" xmlns="http://www.w3.org/2000/svg">
  <g transform="matrix(1 0 0 1 -13 -170 )">
    <path d="M 10.9814634146341 13.0769230769231  L 4.36390243902439 13.0769230769231  L 17.1278048780488 26.6646634615385  L 10.9814634146341 13.0769230769231  Z M 13.849756097561 13  L 21 28.8509615384615  L 28.150243902439 13  L 13.849756097561 13  Z M 3.95414634146341 10.4615384615385  L 11.0429268292683 10.4615384615385  L 15.2224390243902 2.61538461538461  L 9.85463414634146 2.61538461538461  L 3.95414634146341 10.4615384615385  Z M 31.0185365853659 13.0769230769231  L 24.8721951219512 26.6646634615385  L 37.6360975609756 13.0769230769231  L 31.0185365853659 13.0769230769231  Z M 18.1931707317073 2.61538461538461  L 14.0136585365854 11  L 27.9863414634146 11  L 23.8068292682927 2.61538461538461  L 18.1931707317073 2.61538461538461  Z M 26.7775609756098 2.61538461538461  L 30.9570731707317 10.4615384615385  L 38.0458536585366 10.4615384615385  L 32.1453658536585 2.61538461538461  L 26.7775609756098 2.61538461538461  Z M 32.8009756097561 0  C 33.2517073170732 0  33.6 0.177083333333331  33.8458536585366 0.53125  L 41.7131707317073 10.9927884615385  C 41.9043902439024 11.2379807692308  41.9931707317073 11.5206330128205  41.9795121951219 11.8407451923077  C 41.9658536585366 12.1608573717949  41.849756097561 12.4366987179487  41.6312195121951 12.6682692307692  L 21.9629268292683 33.5913461538462  C 21.7170731707317 33.8637820512821  21.3960975609756 34  21 34  C 20.6039024390244 34  20.2829268292683 33.8637820512821  20.0370731707317 33.5913461538462  L 0.368780487804878 12.6682692307692  C 0.150243902439024 12.4366987179487  0.0341463414634146 12.1608573717949  0.0204878048780488 11.8407451923077  C 0.00682926829268293 11.5206330128205  0.095609756097561 11.2379807692308  0.286829268292683 10.9927884615385  L 8.15414634146341 0.53125  C 8.4 0.177083333333331  8.74829268292683 0  9.1990243902439 0  L 32.8009756097561 0  Z " fill-rule="nonzero" fill="#1abc9c" stroke="none" fill-opacity="0.8" transform="matrix(1 0 0 1 13 170 )" />
  </g>
</svg>