<?xml version="1.0" encoding="utf-8"?>
<svg version="1.1" xmlns:xlink="http://www.w3.org/1999/xlink" width="173px" height="56px" xmlns="http://www.w3.org/2000/svg">
  <defs>
    <filter x="508px" y="479px" width="173px" height="56px" filterUnits="userSpaceOnUse" id="filter3">
      <feOffset dx="0" dy="0" in="SourceAlpha" result="shadowOffsetInner" />
      <feGaussianBlur stdDeviation="4" in="shadowOffsetInner" result="shadowGaussian" />
      <feComposite in2="shadowGaussian" operator="atop" in="SourceAlpha" result="shadowComposite" />
      <feColorMatrix type="matrix" values="0 0 0 0 0  0 0 0 0 0  0 0 0 0 0  0 0 0 0.349019607843137 0  " in="shadowComposite" />
    </filter>
    <g id="widget4">
      <path d="M 516.5 495  A 7.5 7.5 0 0 1 524 487.5 L 665 487.5  A 7.5 7.5 0 0 1 672.5 495 L 672.5 519  A 7.5 7.5 0 0 1 665 526.5 L 524 526.5  A 7.5 7.5 0 0 1 516.5 519 L 516.5 495  Z " fill-rule="nonzero" fill="#ffffff" stroke="none" fill-opacity="0.996078431372549" />
      <path d="M 516.5 495  A 7.5 7.5 0 0 1 524 487.5 L 665 487.5  A 7.5 7.5 0 0 1 672.5 495 L 672.5 519  A 7.5 7.5 0 0 1 665 526.5 L 524 526.5  A 7.5 7.5 0 0 1 516.5 519 L 516.5 495  Z " stroke-width="1" stroke="#d7d7d7" fill="none" />
    </g>
  </defs>
  <g transform="matrix(1 0 0 1 -508 -479 )">
    <use xlink:href="#widget4" filter="url(#filter3)" />
    <use xlink:href="#widget4" />
  </g>
</svg>