<?xml version="1.0" encoding="utf-8"?>
<svg version="1.1" xmlns:xlink="http://www.w3.org/1999/xlink" width="220px" height="40px" xmlns="http://www.w3.org/2000/svg">
  <g transform="matrix(1 0 0 1 -1261 -317 )">
    <path d="M 1261.5 325  A 7.5 7.5 0 0 1 1269 317.5 L 1473 317.5  A 7.5 7.5 0 0 1 1480.5 325 L 1480.5 349  A 7.5 7.5 0 0 1 1473 356.5 L 1269 356.5  A 7.5 7.5 0 0 1 1261.5 349 L 1261.5 325  Z " fill-rule="nonzero" fill="#f2f2f2" stroke="none" />
    <path d="M 1261.5 325  A 7.5 7.5 0 0 1 1269 317.5 L 1473 317.5  A 7.5 7.5 0 0 1 1480.5 325 L 1480.5 349  A 7.5 7.5 0 0 1 1473 356.5 L 1269 356.5  A 7.5 7.5 0 0 1 1261.5 349 L 1261.5 325  Z " stroke-width="1" stroke="#d7d7d7" fill="none" />
  </g>
</svg>