<?xml version="1.0" encoding="utf-8"?>
<svg version="1.1" xmlns:xlink="http://www.w3.org/1999/xlink" width="14px" height="16px" xmlns="http://www.w3.org/2000/svg">
  <g transform="matrix(1 0 0 1 -10 -1286 )">
    <path d="M 12.4120603015075 10.4711538461538  C 12.8743718592965 11.1057692307692  13.4036850921273 11.5096153846154  14 11.6826923076923  C 13.7386934673367 12.4839743589744  13.3266331658291 13.2852564102564  12.7638190954774 14.0865384615385  C 11.8994974874372 15.3429487179487  11.0385259631491 15.9711538461538  10.1809045226131 15.9711538461538  C 9.85259631490787 15.9711538461538  9.38358458961474 15.8685897435897  8.77386934673367 15.6634615384615  C 8.19765494137354 15.4583333333333  7.69179229480737 15.3557692307692  7.25628140703518 15.3557692307692  C 6.84757118927973 15.3557692307692  6.37185929648241 15.4615384615385  5.82914572864322 15.6730769230769  C 5.28643216080402 15.8910256410256  4.84422110552764 16  4.50251256281407 16  C 3.48408710217755 16  2.47571189279732 15.1698717948718  1.47738693467337 13.5096153846154  C 0.492462311557789 11.8365384615385  0 10.224358974359  0 8.67307692307692  C 0 7.21153846153846  0.3785594639866 6.01282051282051  1.1356783919598 5.07692307692308  C 1.892797319933 4.15384615384615  2.84422110552764 3.69230769230769  3.98994974874372 3.69230769230769  C 4.47236180904523 3.69230769230769  5.06532663316583 3.78846153846154  5.76884422110553 3.98076923076923  C 6.46566164154104 4.17307692307692  6.92797319932998 4.26923076923077  7.15577889447236 4.26923076923077  C 7.4572864321608 4.26923076923077  7.93634840871022 4.16025641025641  8.5929648241206 3.94230769230769  C 9.27638190954774 3.72435897435897  9.85594639865997 3.61538461538462  10.3316582914573 3.61538461538462  C 11.1289782244556 3.61538461538462  11.8425460636516 3.82371794871795  12.4723618090452 4.24038461538462  C 12.820770519263 4.47115384615385  13.1691792294807 4.79166666666667  13.5175879396985 5.20192307692308  C 12.9882747068677 5.63141025641026  12.606365159129 6.00961538461539  12.3718592964824 6.33653846153846  C 11.9363484087102 6.93910256410256  11.7185929648241 7.6025641025641  11.7185929648241 8.32692307692308  C 11.7185929648241 9.12179487179487  11.9497487437186 9.83653846153846  12.4120603015075 10.4711538461538  Z M 10.2160804020101 0.307692307692308  C 10.2194304857621 0.346153846153847  10.2211055276382 0.378205128205128  10.2211055276382 0.403846153846153  C 10.2211055276382 0.794871794871794  10.1239530988275 1.23076923076923  9.92964824120603 1.71153846153846  C 9.7286432160804 2.19230769230769  9.41708542713568 2.63461538461539  8.99497487437186 3.03846153846154  C 8.63316582914573 3.38461538461539  8.2713567839196 3.61538461538462  7.90954773869347 3.73076923076923  C 7.66164154103853 3.80128205128205  7.31323283082077 3.85576923076923  6.8643216080402 3.89423076923077  C 6.88442211055276 2.93910256410256  7.14572864321608 2.11538461538462  7.64824120603015 1.42307692307692  C 8.14405360134003 0.737179487179485  8.98157453936349 0.262820512820513  10.1608040201005 0  C 10.1675041876047 0.0192307692307701  10.1758793969849 0.0544871794871789  10.1859296482412 0.10576923076923  C 10.1959798994975 0.157051282051281  10.2043551088777 0.192307692307692  10.2110552763819 0.211538461538462  C 10.2110552763819 0.237179487179485  10.212730318258 0.26923076923077  10.2160804020101 0.307692307692308  Z " fill-rule="nonzero" fill="#ffffff" stroke="none" transform="matrix(1 0 0 1 10 1286 )" />
  </g>
</svg>