<?xml version="1.0" encoding="utf-8"?>
<svg version="1.1" xmlns:xlink="http://www.w3.org/1999/xlink" width="12px" height="14px" xmlns="http://www.w3.org/2000/svg">
  <g transform="matrix(1 0 0 1 -10 -728 )">
    <path d="M 3.97159090909091 2.89002403846154  C 4.03409090909091 2.95452724358974  4.11079545454546 2.98677884615385  4.20170454545455 2.98677884615385  C 4.29261363636364 2.98677884615385  4.37073863636364 2.95452724358974  4.43607954545455 2.89002403846154  C 4.50142045454546 2.82552083333333  4.53409090909091 2.74839743589743  4.53409090909091 2.65865384615385  C 4.53409090909091 2.56891025641026  4.50142045454546 2.49178685897436  4.43607954545455 2.42728365384615  C 4.37073863636364 2.36278044871795  4.29261363636364 2.33052884615385  4.20170454545455 2.33052884615385  C 4.11079545454546 2.33052884615385  4.03409090909091 2.36278044871795  3.97159090909091 2.42728365384615  C 3.90909090909091 2.49178685897436  3.87784090909091 2.56891025641026  3.87784090909091 2.65865384615385  C 3.87784090909091 2.74839743589743  3.90909090909091 2.82552083333333  3.97159090909091 2.89002403846154  Z M 7.56392045454546 2.89002403846154  C 7.62926136363637 2.95452724358974  7.70738636363636 2.98677884615385  7.79829545454546 2.98677884615385  C 7.88920454545455 2.98677884615385  7.96590909090909 2.95452724358974  8.02840909090909 2.89002403846154  C 8.09090909090909 2.82552083333333  8.12215909090909 2.74839743589743  8.12215909090909 2.65865384615385  C 8.12215909090909 2.56891025641026  8.09090909090909 2.49178685897436  8.02840909090909 2.42728365384615  C 7.96590909090909 2.36278044871795  7.88920454545455 2.33052884615385  7.79829545454546 2.33052884615385  C 7.70738636363636 2.33052884615385  7.62926136363637 2.36278044871795  7.56392045454546 2.42728365384615  C 7.49857954545455 2.49178685897436  7.46590909090909 2.56891025641026  7.46590909090909 2.65865384615385  C 7.46590909090909 2.74839743589743  7.49857954545455 2.82552083333333  7.56392045454546 2.89002403846154  Z M 0.255681818181818 4.78725961538462  C 0.426136363636364 4.61899038461538  0.633522727272727 4.53485576923077  0.877840909090909 4.53485576923077  C 1.11647727272727 4.53485576923077  1.32102272727273 4.61899038461538  1.49147727272727 4.78725961538462  C 1.66193181818182 4.95552884615385  1.74715909090909 5.15745192307692  1.74715909090909 5.39302884615385  L 1.74715909090909 9.01081730769231  C 1.74715909090909 9.2520032051282  1.66335227272727 9.45673076923077  1.49573863636364 9.625  C 1.328125 9.79326923076923  1.12215909090909 9.87740384615385  0.877840909090909 9.87740384615385  C 0.633522727272727 9.87740384615385  0.426136363636364 9.79326923076923  0.255681818181818 9.625  C 0.0852272727272727 9.45673076923077  0 9.2520032051282  0 9.01081730769231  L 0 5.39302884615385  C 0 5.15745192307692  0.0852272727272727 4.95552884615385  0.255681818181818 4.78725961538462  Z M 2.08806818181818 4.69471153846154  L 9.91193181818182 4.69471153846154  L 9.91193181818182 10.2980769230769  C 9.91193181818182 10.5560897435897  9.82102272727273 10.7748397435897  9.63920454545455 10.9543269230769  C 9.45738636363637 11.1338141025641  9.23863636363636 11.2235576923077  8.98295454545455 11.2235576923077  L 8.34375 11.2235576923077  L 8.34375 13.1334134615385  C 8.34375 13.3745993589744  8.25852272727273 13.5793269230769  8.08806818181818 13.7475961538462  C 7.91761363636364 13.9158653846154  7.71022727272727 14  7.46590909090909 14  C 7.22159090909091 14  7.01420454545455 13.9158653846154  6.84375 13.7475961538462  C 6.67329545454546 13.5793269230769  6.58806818181818 13.3745993589744  6.58806818181818 13.1334134615385  L 6.58806818181818 11.2235576923077  L 5.41193181818182 11.2235576923077  L 5.41193181818182 13.1334134615385  C 5.41193181818182 13.3745993589744  5.32670454545455 13.5793269230769  5.15625 13.7475961538462  C 4.98579545454545 13.9158653846154  4.77840909090909 14  4.53409090909091 14  C 4.29545454545455 14  4.09090909090909 13.9158653846154  3.92045454545455 13.7475961538462  C 3.75 13.5793269230769  3.66477272727273 13.3745993589744  3.66477272727273 13.1334134615385  L 3.65625 11.2235576923077  L 3.02556818181818 11.2235576923077  C 2.76420454545455 11.2235576923077  2.54261363636364 11.1338141025641  2.36079545454545 10.9543269230769  C 2.17897727272727 10.7748397435897  2.08806818181818 10.5560897435897  2.08806818181818 10.2980769230769  L 2.08806818181818 4.69471153846154  Z M 8.53977272727273 0.185096153846154  L 7.93465909090909 1.28725961538462  C 8.54261363636364 1.5957532051282  9.02840909090909 2.02624198717949  9.39204545454546 2.57872596153846  C 9.75568181818182 3.13120993589743  9.9375 3.73557692307692  9.9375 4.39182692307692  L 2.05397727272727 4.39182692307692  C 2.05397727272727 3.73557692307692  2.23579545454546 3.13120993589743  2.59943181818182 2.57872596153846  C 2.96306818181818 2.02624198717949  3.45170454545455 1.5957532051282  4.06534090909091 1.28725961538462  L 3.46022727272727 0.185096153846154  C 3.42045454545455 0.112179487179487  3.43465909090909 0.0560897435897418  3.50284090909091 0.0168269230769238  C 3.57670454545455 -0.0168269230769238  3.63352272727273 0  3.67329545454545 0.0673076923076921  L 4.28693181818182 1.17788461538462  C 4.82670454545455 0.942307692307692  5.39772727272727 0.82451923076923  6 0.82451923076923  C 6.60227272727273 0.82451923076923  7.17329545454546 0.942307692307692  7.71306818181818 1.17788461538462  L 8.32670454545455 0.0673076923076921  C 8.36647727272727 0  8.42329545454546 -0.0168269230769238  8.49715909090909 0.0168269230769238  C 8.56534090909091 0.0560897435897418  8.57954545454546 0.112179487179487  8.53977272727273 0.185096153846154  Z M 11.7443181818182 4.78305288461538  C 11.9147727272727 4.94851762820513  12 5.15184294871795  12 5.39302884615385  L 12 9.01081730769231  C 12 9.2520032051282  11.9147727272727 9.45673076923077  11.7443181818182 9.625  C 11.5738636363636 9.79326923076923  11.3664772727273 9.87740384615385  11.1221590909091 9.87740384615385  C 10.8835227272727 9.87740384615385  10.6789772727273 9.79326923076923  10.5085227272727 9.625  C 10.3380681818182 9.45673076923077  10.2528409090909 9.2520032051282  10.2528409090909 9.01081730769231  L 10.2528409090909 5.39302884615385  C 10.2528409090909 5.15184294871795  10.3380681818182 4.94851762820513  10.5085227272727 4.78305288461538  C 10.6789772727273 4.61758814102564  10.8835227272727 4.53485576923077  11.1221590909091 4.53485576923077  C 11.3664772727273 4.53485576923077  11.5738636363636 4.61758814102564  11.7443181818182 4.78305288461538  Z " fill-rule="nonzero" fill="#ffffff" stroke="none" transform="matrix(1 0 0 1 10 728 )" />
  </g>
</svg>