<?xml version="1.0" encoding="utf-8"?>
<svg version="1.1" xmlns:xlink="http://www.w3.org/1999/xlink" width="39px" height="31px" xmlns="http://www.w3.org/2000/svg">
  <g transform="matrix(1 0 0 1 -26 -29 )">
    <path d="M 10.56884765625 8.63279376498801  C 10.88623046875 8.32923661071143  11.044921875 7.92346123101519  11.044921875 7.41546762589928  C 11.044921875 6.90747402078337  10.88623046875 6.49860111910471  10.56884765625 6.18884892086331  C 10.25146484375 5.8790967226219  9.83251953125 5.7242206235012  9.31201171875 5.7242206235012  C 8.76611328125 5.7242206235012  8.28369140625 5.88219424460432  7.86474609375 6.19814148681055  C 7.44580078125 6.51408872901679  7.236328125 6.91986410871303  7.236328125 7.41546762589928  C 7.236328125 7.89868105515587  7.44580078125 8.29826139088729  7.86474609375 8.61420863309353  C 8.28369140625 8.93015587529976  8.76611328125 9.08812949640288  9.31201171875 9.08812949640288  C 9.83251953125 9.08812949640288  10.25146484375 8.93635091926459  10.56884765625 8.63279376498801  Z M 24.708251953125 17.7859712230216  C 25.031982421875 17.5133892885691  25.19384765625 17.1974420463629  25.19384765625 16.8381294964029  C 25.19384765625 16.4912070343725  25.031982421875 16.1814548361311  24.708251953125 15.9088729016787  C 24.384521484375 15.6362909672262  23.96875 15.5  23.4609375 15.5  C 23.1181640625 15.5  22.803955078125 15.6393884892086  22.518310546875 15.9181654676259  C 22.232666015625 16.1969424460432  22.08984375 16.5035971223022  22.08984375 16.8381294964029  C 22.08984375 17.1850519584333  22.232666015625 17.4979016786571  22.518310546875 17.7766786570743  C 22.803955078125 18.0554556354916  23.1181640625 18.1948441247002  23.4609375 18.1948441247002  C 23.96875 18.1948441247002  24.384521484375 18.058553157474  24.708251953125 17.7859712230216  Z M 20.233154296875 8.63279376498801  C 20.544189453125 8.32923661071143  20.69970703125 7.92346123101519  20.69970703125 7.41546762589928  C 20.69970703125 6.90747402078337  20.544189453125 6.49860111910471  20.233154296875 6.18884892086331  C 19.922119140625 5.8790967226219  19.50634765625 5.7242206235012  18.98583984375 5.7242206235012  C 18.43994140625 5.7242206235012  17.95751953125 5.88219424460432  17.53857421875 6.19814148681055  C 17.11962890625 6.51408872901679  16.91015625 6.91986410871303  16.91015625 7.41546762589928  C 16.91015625 7.89868105515587  17.11962890625 8.29826139088729  17.53857421875 8.61420863309353  C 17.95751953125 8.93015587529976  18.43994140625 9.08812949640288  18.98583984375 9.08812949640288  C 19.50634765625 9.08812949640288  19.922119140625 8.93635091926459  20.233154296875 8.63279376498801  Z M 32.296875 17.7859712230216  C 32.626953125 17.5133892885691  32.7919921875 17.1974420463629  32.7919921875 16.8381294964029  C 32.7919921875 16.4912070343725  32.626953125 16.1814548361311  32.296875 15.9088729016787  C 31.966796875 15.6362909672262  31.55419921875 15.5  31.05908203125 15.5  C 30.71630859375 15.5  30.402099609375 15.6393884892086  30.116455078125 15.9181654676259  C 29.830810546875 16.1969424460432  29.68798828125 16.5035971223022  29.68798828125 16.8381294964029  C 29.68798828125 17.1850519584333  29.830810546875 17.4979016786571  30.116455078125 17.7766786570743  C 30.402099609375 18.0554556354916  30.71630859375 18.1948441247002  31.05908203125 18.1948441247002  C 31.55419921875 18.1948441247002  31.966796875 18.058553157474  32.296875 17.7859712230216  Z M 25.127197265625 4.61840527577938  C 26.466552734375 6.06185051958433  27.3330078125 7.67565947242206  27.7265625 9.45983213429257  C 27.3330078125 9.41027178257394  26.888671875 9.38549160671463  26.3935546875 9.38549160671463  C 24.248046875 9.38549160671463  22.27392578125 9.86250999200639  20.47119140625 10.8165467625899  C 18.66845703125 11.7705835331735  17.249755859375 13.0622501998401  16.215087890625 14.6915467625899  C 15.180419921875 16.3208433253397  14.6630859375 18.1019184652278  14.6630859375 20.0347721822542  C 14.6630859375 21.0011990407674  14.80908203125 21.9428457234213  15.10107421875 22.8597122302158  C 14.65673828125 22.8968824940048  14.22509765625 22.9154676258993  13.80615234375 22.9154676258993  C 13.47607421875 22.9154676258993  13.15869140625 22.906175059952  12.85400390625 22.8875899280576  C 12.54931640625 22.8690047961631  12.2001953125 22.8287370103917  11.806640625 22.7667865707434  C 11.4130859375 22.7048361310951  11.130615234375 22.6614708233413  10.959228515625 22.636690647482  C 10.787841796875 22.6119104716227  10.44189453125 22.546862509992  9.92138671875 22.4415467625899  C 9.40087890625 22.3362310151878  9.08349609375 22.2711830535572  8.96923828125 22.2464028776978  L 4.1513671875 24.6067146282974  L 5.5224609375 20.5551558752998  C 1.8408203125 18.0399680255795  0 15.0043964828137  0 11.4484412470024  C 0 9.35451638689049  0.618896484375 7.42785771382893  1.856689453125 5.66846522781774  C 3.094482421875 3.90907274180655  4.770263671875 2.52448041566746  6.884033203125 1.51468824940048  C 8.997802734375 0.504896083133491  11.30517578125 0  13.80615234375 0  C 16.04052734375 0  18.151123046875 0.408872901678658  20.137939453125 1.22661870503597  C 22.124755859375 2.04436450839329  23.787841796875 3.17496003197442  25.127197265625 4.61840527577938  Z M 37.371826171875 14.9889088729017  C 38.457275390625 16.4943045563549  39 18.1266986410871  39 19.8860911270983  C 39 21.3357314148681  38.565185546875 22.7203237410072  37.695556640625 24.0398681055156  C 36.825927734375 25.359412470024  35.6484375 26.5581534772182  34.1630859375 27.6360911270983  L 35.21044921875 31  L 31.4208984375 28.9742206235012  C 29.5166015625 29.4326538768985  28.1328125 29.6618705035971  27.26953125 29.6618705035971  C 25.1240234375 29.6618705035971  23.14990234375 29.2251199040767  21.34716796875 28.351618705036  C 19.54443359375 27.4781175059952  18.125732421875 26.2917665867306  17.091064453125 24.7925659472422  C 16.056396484375 23.2933653077538  15.5390625 21.6578737010392  15.5390625 19.8860911270983  C 15.5390625 18.1143085531575  16.056396484375 16.4788169464428  17.091064453125 14.9796163069544  C 18.125732421875 13.480415667466  19.54443359375 12.2940647482014  21.34716796875 11.4205635491607  C 23.14990234375 10.5470623501199  25.1240234375 10.1103117505995  27.26953125 10.1103117505995  C 29.3134765625 10.1103117505995  31.23681640625 10.5470623501199  33.03955078125 11.4205635491607  C 34.84228515625 12.2940647482014  36.286376953125 13.4835131894484  37.371826171875 14.9889088729017  Z " fill-rule="nonzero" fill="#37a141" stroke="none" transform="matrix(1 0 0 1 26 29 )" />
  </g>
</svg>