<?xml version="1.0" encoding="utf-8"?>
<svg version="1.1" xmlns:xlink="http://www.w3.org/1999/xlink" width="201px" height="66px" xmlns="http://www.w3.org/2000/svg">
  <defs>
    <filter x="-8px" y="-8px" width="201px" height="66px" filterUnits="userSpaceOnUse" id="filter3">
      <feOffset dx="0" dy="0" in="SourceAlpha" result="shadowOffsetInner" />
      <feGaussianBlur stdDeviation="4" in="shadowOffsetInner" result="shadowGaussian" />
      <feComposite in2="shadowGaussian" operator="atop" in="SourceAlpha" result="shadowComposite" />
      <feColorMatrix type="matrix" values="0 0 0 0 0  0 0 0 0 0  0 0 0 0 0  0 0 0 0.349019607843137 0  " in="shadowComposite" />
    </filter>
    <g id="widget4">
      <path d="M 0.5 8  A 7.5 7.5 0 0 1 8 0.5 L 177 0.5  A 7.5 7.5 0 0 1 184.5 8 L 184.5 42  A 7.5 7.5 0 0 1 177 49.5 L 8 49.5  A 7.5 7.5 0 0 1 0.5 42 L 0.5 8  Z " fill-rule="nonzero" fill="#ffffff" stroke="none" fill-opacity="0.996078431372549" />
      <path d="M 0.5 8  A 7.5 7.5 0 0 1 8 0.5 L 177 0.5  A 7.5 7.5 0 0 1 184.5 8 L 184.5 42  A 7.5 7.5 0 0 1 177 49.5 L 8 49.5  A 7.5 7.5 0 0 1 0.5 42 L 0.5 8  Z " stroke-width="1" stroke="#d7d7d7" fill="none" />
    </g>
  </defs>
  <g transform="matrix(1 0 0 1 8 8 )">
    <use xlink:href="#widget4" filter="url(#filter3)" />
    <use xlink:href="#widget4" />
  </g>
</svg>