<?xml version="1.0" encoding="utf-8"?>
<svg version="1.1" xmlns:xlink="http://www.w3.org/1999/xlink" width="157px" height="40px" xmlns="http://www.w3.org/2000/svg">
  <g transform="matrix(1 0 0 1 -516 -487 )">
    <path d="M 516.5 495  A 7.5 7.5 0 0 1 524 487.5 L 665 487.5  A 7.5 7.5 0 0 1 672.5 495 L 672.5 519  A 7.5 7.5 0 0 1 665 526.5 L 524 526.5  A 7.5 7.5 0 0 1 516.5 519 L 516.5 495  Z " fill-rule="nonzero" fill="#f2f2f2" stroke="none" />
    <path d="M 516.5 495  A 7.5 7.5 0 0 1 524 487.5 L 665 487.5  A 7.5 7.5 0 0 1 672.5 495 L 672.5 519  A 7.5 7.5 0 0 1 665 526.5 L 524 526.5  A 7.5 7.5 0 0 1 516.5 519 L 516.5 495  Z " stroke-width="1" stroke="#d7d7d7" fill="none" />
  </g>
</svg>